/vscmnt/brussel_pixiu_data/_data_brussel/112/vsc11236/PredSimResults/SUBJ11opt3D/weighted-expIG/worker_03.mot
version=1
nRows=5
nColumns=50
inDegrees=yes
endheader
                time	         pelvis_tilt	         pelvis_list	     pelvis_rotation	           pelvis_tx	           pelvis_ty	           pelvis_tz	       hip_flexion_r	     hip_adduction_r	      hip_rotation_r	        knee_angle_r	       ankle_angle_r	         mtp_angle_r	       hip_flexion_l	     hip_adduction_l	      hip_rotation_l	        knee_angle_l	       ankle_angle_l	         mtp_angle_l	    lumbar_extension	      lumbar_bending	     lumbar_rotation	 ercspn_r/activation	 intobl_r/activation	 extobl_r/activation	    abd_r/activation	    add_r/activation	hamstrings_r/activation	bifemsh_r/activation	glut_max_r/activation	iliopsoas_r/activation	rect_fem_r/activation	  vasti_r/activation	gastroc_r/activation	 soleus_r/activation	tib_ant_r/activation	 ercspn_l/activation	 intobl_l/activation	 extobl_l/activation	    abd_l/activation	    add_l/activation	hamstrings_l/activation	bifemsh_l/activation	glut_max_l/activation	iliopsoas_l/activation	rect_fem_l/activation	  vasti_l/activation	gastroc_l/activation	 soleus_l/activation	tib_ant_l/activation	
          1.40511968	         -2.96523787	         -1.37244827	          6.43870100	          1.47537566	          0.93979992	         -0.00433226	         31.27503071	         -1.40243090	         -4.46821288	        -10.44946538	          1.50179110	          0.25651888	        -13.81037145	         -3.38531692	         -1.51555813	        -12.78249417	         12.42479545	         30.73362445	        -13.92610115	         -2.06761935	         -3.38099216	          0.02644800	          0.21687453	          0.05979883	          0.01000001	          0.26507324	          0.03601110	          0.12378818	          0.09087437	          0.10120054	          0.03907988	          0.01605006	          0.01000010	          0.01000003	          0.41831530	          0.01000042	          0.01000010	          0.01000005	          0.03534147	          0.05688013	          0.02304996	          0.25045372	          0.02631721	          0.25900445	          0.01000084	          0.01000012	          0.14893712	          0.32646906	          0.01234182	
          1.41917087	         -3.10250950	         -1.44005835	          6.50615009	          1.49468639	          0.93758079	         -0.00296663	         31.02740333	         -1.20317391	         -4.61103866	        -11.74212444	          1.04491325	          0.20967509	        -14.23016305	         -3.67028294	         -1.90108188	        -13.82129772	         11.56318679	         32.67903054	        -13.41284821	         -1.53163904	         -3.59272543	          0.02142955	          0.17572292	          0.04845202	          0.03254934	          0.21477577	          0.05321368	          0.10029954	          0.12519843	          0.08199776	          0.03166453	          0.01300458	          0.01234186	          0.01186290	          0.47267345	          0.02049820	          0.01000005	          0.01000053	          0.02863544	          0.04609428	          0.03219567	          0.21199135	          0.02132353	          0.20986114	          0.01000010	          0.01000004	          0.12067635	          0.30143882	          0.01000002	
          1.43322207	         -3.21853468	         -1.51038782	          6.54547144	          1.51425012	          0.93575947	         -0.00151401	         30.70783853	         -1.01555292	         -4.79648869	        -12.95006267	          0.37682276	          0.19955308	        -14.44045178	         -3.97155772	         -2.30183284	        -15.26216222	         10.51389732	         34.72395259	        -12.88413400	         -0.99024431	         -3.79273374	          0.02448366	          0.14237956	          0.03925826	          0.07852526	          0.24737665	          0.05157281	          0.08126783	          0.13336217	          0.06643871	          0.02565623	          0.01053703	          0.01000005	          0.01000001	          0.54558694	          0.02521792	          0.01000002	          0.01000008	          0.02320187	          0.03734802	          0.02932639	          0.17176667	          0.01727740	          0.20358201	          0.01000015	          0.01000003	          0.09777805	          0.27326333	          0.01000002	
          1.44727327	         -3.31347689	         -1.57113323	          6.55317017	          1.53372918	          0.93451175	          0.00002982	         30.46333717	         -0.85171044	         -5.05364374	        -14.29115442	         -0.34433906	          0.15746259	        -14.35429420	         -4.27828832	         -2.71042625	        -17.20862550	          9.24213153	         36.83513244	        -12.38098982	         -0.45865056	         -3.97530804	          0.03449254	          0.11536308	          0.03180902	          0.11292619	          0.28604962	          0.05739196	          0.06584738	          0.12192388	          0.05383198	          0.02078800	          0.09227656	          0.01000005	          0.01000002	          0.60095114	          0.05537913	          0.01000004	          0.01000006	          0.01879933	          0.08840123	          0.03075378	          0.13917464	          0.01399903	          0.16495381	          0.01000010	          0.01000002	          0.07922469	          0.23058099	          0.01000001	
          1.46132446	         -3.38863830	         -1.62378764	          6.53074266	          1.55293921	          0.93399473	          0.00163832	         30.25994166	         -0.69953185	         -5.33308269	        -15.75448086	         -0.76507360	          0.09787184	        -13.90889270	         -4.59418905	         -3.12428954	        -19.73354094	          7.73074660	         38.87748460	        -11.91898918	          0.06481969	         -4.13655460	          0.02796345	          0.09347298	          0.02577327	          0.13377848	          0.30089369	          0.05824957	          0.05335297	          0.14290768	          0.04361738	          0.01684353	          0.16611311	          0.01000005	          0.01000001	          0.61444974	          0.08850457	          0.01000003	          0.01000007	          0.01523216	          0.15898040	          0.03948039	          0.11276759	          0.01134272	          0.13365404	          0.01000007	          0.01000001	          0.06419183	          0.18682831	          0.01000001	
